<mxfile host="app.diagrams.net" modified="2020-07-06T15:32:34.430Z" agent="5.0 (Windows)" etag="j2NU9YZZ4DMYxFXPQosU" version="13.3.9" type="github">
  <diagram id="QYHInxkbD2-XI1kDPdKv" name="Page-1">
    <mxGraphModel dx="836" dy="530" grid="1" gridSize="10" guides="1" tooltips="1" connect="1" arrows="1" fold="1" page="1" pageScale="1" pageWidth="850" pageHeight="1100" math="0" shadow="0">
      <root>
        <mxCell id="0" />
        <mxCell id="1" parent="0" />
        <mxCell id="oanqZpxKPQXugIsl4gW2-1" value="BLOCK TILE" style="whiteSpace=wrap;html=1;aspect=fixed;" parent="1" vertex="1">
          <mxGeometry x="120" y="480" width="80" height="80" as="geometry" />
        </mxCell>
        <mxCell id="oanqZpxKPQXugIsl4gW2-3" value="&lt;div&gt;PLAYER&lt;/div&gt;&lt;div&gt;3 Block Tall&lt;/div&gt;&lt;div&gt;2 Block Wide&lt;br&gt;&lt;/div&gt;" style="rounded=0;whiteSpace=wrap;html=1;fillColor=#1ba1e2;strokeColor=#333333;fontColor=#ffffff;" parent="1" vertex="1">
          <mxGeometry x="120" y="240" width="160" height="240" as="geometry" />
        </mxCell>
        <mxCell id="oanqZpxKPQXugIsl4gW2-4" value="BLOCK TILE" style="whiteSpace=wrap;html=1;aspect=fixed;" parent="1" vertex="1">
          <mxGeometry x="200" y="480" width="80" height="80" as="geometry" />
        </mxCell>
        <mxCell id="ClC-BP5Ee5AOoXEFcz1q-1" value="" style="ellipse;whiteSpace=wrap;html=1;" vertex="1" parent="1">
          <mxGeometry x="390" y="240" width="120" height="220" as="geometry" />
        </mxCell>
      </root>
    </mxGraphModel>
  </diagram>
</mxfile>
